<?xml version="1.0" encoding="UTF-8"?>
<svg id="Capa_1" data-name="Capa 1" xmlns="http://www.w3.org/2000/svg" viewBox="0 0 1579 1819">
  <defs>
    <style>
      .cls-1 {
        fill: #bba164;
      }

      .cls-1, .cls-2 {
        stroke-width: 0px;
      }

      .cls-2 {
        fill: #1e1e1d;
      }
    </style>
  </defs>
  <path class="cls-2" d="M135.52,0h1307.97c74.84,0,135.52,93.19,135.52,208.14v1402.72c0,114.95-60.67,208.14-135.52,208.14H135.52c-74.84,0-135.52-93.19-135.52-208.14V208.14C0,93.19,60.67,0,135.52,0Z"/>
  <g>
    <path class="cls-2" d="M624.61,22.27l-111.97,34.52c-59.7,55.25-99.55,126.63-119.4,214.05-5,9.23,0,11.51,14.92,6.89l29.85-82.88h7.5l-7.5,20.74,7.5,20.74,22.42-62.14v-48.36l22.42-34.52,52.27-34.52h37.35l44.77-20.74h22.42l-7.5,20.74,29.85-6.89,29.85,6.89-59.7,48.36,22.42,89.77c39.78,4.62,72.12,16.12,97.05,34.52l7.5,13.78c-34.85,4.62-57.2,0-67.2-13.78l7.5,41.41,14.92,6.89c69.7,4.62,129.4,18.4,179.17,41.41l7.5,6.89-7.5-27.63,7.5-13.78,22.42,13.78h7.5l-44.77-131.17-67.2-55.25v-6.89l67.2,27.63,52.27,151.91v62.14l7.5,6.89-171.67-55.25-82.12-13.78h-74.62l-7.5-6.89-171.67,6.89-126.9,27.63-7.5,34.52c24.85,27.63,59.7,46.02,104.47,55.25v145.02l14.92,48.36v41.41c19.92,13.78,29.85,39.13,29.85,75.99l29.85,34.52v41.41l-149.25,62.14-111.97,6.89-119.4,69.03-67.2,89.77,7.5,13.78h-14.92l7.5,20.74-7.5-6.89-14.92,27.63,7.5,151.91v13.78l14.92,75.99c49.77,59.87,89.55,128.9,119.4,207.16l59.7,283.09,67.2-27.63-74.62-117.4v-75.99l-22.42-69.03,44.77,6.89,14.92,27.63,14.92,6.89c89.55,13.78,171.67,36.86,246.3,69.03l111.97-6.89,126.9-27.63h67.2l7.5,6.89,253.8,27.63,29.85,13.78-119.4,34.52,134.32,41.41c-5,27.63,0,48.36,14.92,62.14-5,9.23,0,11.51,14.92,6.89l29.85-145.02,37.35,6.89,141.82-6.89,179.17-82.88,14.92-34.52-14.92,6.89-22.42-48.36,7.5-20.74v-13.78l-7.5-41.41-67.2-82.88,7.5-89.77,37.35,48.36,29.85,69.03c-9.93,23.01-5,32.24,14.92,27.63l-7.5,20.74,14.92,41.41h7.5l-7.5-69.03-44.77-110.51-111.97-117.4v-13.78l-82.12-117.4-7.5-27.63-134.32-96.66-126.9-20.74-134.32-55.25-14.92-6.89-7.5-117.4-14.92-62.14v-20.74l74.62-110.51-7.5-62.14,44.77-34.52v-20.74l-22.42-34.52-7.5-82.88-44.77-124.29-89.55-55.25h-37.35l-14.92,20.74-67.2-20.74,82.12-6.89,7.5-6.89,22.42,6.89h14.92l-37.35-27.63h-44.77l-37.35-13.78h-14.92l-67.2-6.89-.29.27Z"/>
    <path class="cls-2" d="M426.76,326.09l26.1,3.48c-25.88,3.68-44.55,14.05-55.95,31.1l-3.75-10.37,33.6-24.15v-.07Z"/>
    <path class="cls-2" d="M799.96,326.09c61.17,5.55,107.27,25.08,138.07,58.66l7.5,24.15c-13.45,5.08-18.38,1.61-14.92-10.37l-55.95-44.88-74.62-20.74v-6.89l-.07.07Z"/>
    <path class="cls-2" d="M538.73,333.05h156.75l37.35,6.89,18.67,17.26,11.18,24.15h18.67v-27.63h11.18c24.85,8.29,33.6,29.03,26.1,62.14l-67.2,51.77,18.67,3.48,29.85-13.78,3.75,17.26-59.7,34.52v48.36c-15.95,10.57-20.88,31.31-14.92,62.14l-18.67,24.15-3.75-37.99,7.5-20.74-14.92,6.89-7.5,55.25-26.1,31.1-7.5-20.74-52.27,69.03-59.7,6.89c-5.96-10.1-20.88-12.44-44.77-6.89l-26.1-24.15v-55.25l-11.18-10.37-11.18,3.48-22.42-96.66v-82.88l7.5-31.1c15.44,3.68,21.62-.94,18.67-13.78h37.35l22.42,13.78,11.18-37.99-14.92-24.15-52.27-6.89c-5.96-13.78.22-18.4,18.67-13.78l59.7-13.78h-.07ZM676.81,346.83l-111.97,34.52,22.42,27.63,29.85-27.63,74.62-13.78c9.93,4.62,12.43,0,7.5-13.78l-22.42-6.89v-.07ZM639.53,388.23l-29.85,20.74,22.42,6.89,44.77-6.89,7.5,13.78,7.5-20.74-52.27-13.78h-.07ZM594.68,471.11v27.63l-14.92,6.89-14.92-6.89c-24.85,0-37.35,6.89-37.35,20.74l-29.85-20.74c-14.92-4.62-19.92,0-14.92,13.78l52.27,27.63,67.2-34.52c19.92-4.62,32.35,2.27,37.35,20.74-5,9.23,0,11.51,14.92,6.89l14.92,20.74v-13.78l-74.62-69.03-.07-.07ZM482.78,512.59l-29.85,34.52,7.5,20.74,22.42-41.41v-13.78l-.07-.07ZM505.13,560.88v6.89c49.77-9.23,89.55-4.62,119.4,13.78l-7.5,13.78,29.85-20.74v-13.78h-141.82l.07.07ZM512.63,623.02v27.63c29.85,9.23,49.77,4.62,59.7-13.78v-13.78h-59.7v-.07Z"/>
    <path class="cls-2" d="M430.51,374.45h26.1l55.95,24.15-18.67,3.48-37.35-6.89-18.67,10.37-7.5-31.1h.15Z"/>
    <path class="cls-2" d="M904.5,429.71l18.67,10.37v55.25l-48.52,72.51-37.35-13.78-11.18,34.52,18.67-6.89,18.67,210.58,14.92,69.03-14.92-6.89-18.67-31.1-3.75,79.4c22.87,13.38,35.36,36.39,37.35,69.03l-7.5,24.15-85.87,13.78h-89.55l-197.77-141.54-11.18-17.26-48.52-17.26,33.6-24.15,41.03-6.89v-48.36h26.1c44.26,9.7,80.36,26.96,108.22,51.77l-11.18-3.48-97.05-27.63,7.5,13.78,104.47,48.36,82.12,55.25,18.67-31.1,26.1-100.14,18.67,100.14,11.18,17.26,11.18-227.9c-13.45-5.08-18.38-1.61-14.92,10.37l-55.95,37.99,3.75-10.37,22.42-55.25,7.5-89.77,33.6-37.99,18.67,27.63c17.42,5.08,22.42-9.9,14.92-44.88l14.92-51.77,26.1,6.89,14.92-13.78-.07.13ZM900.75,457.33l-29.85,20.74,7.5,20.74-14.92,48.36,22.42-6.89c-5-13.78,0-18.4,14.92-13.78l-7.5-20.74,7.5-34.52v-13.78l-.07-.13Z"/>
    <path class="cls-2" d="M389.48,857.81l37.35,6.89,253.8,151.91h220.2l18.67-131.17,11.18,44.88v69.03l-7.5,27.63,108.22,72.51,3.75-10.37-37.35-62.14c6.47-21.61,3.97-35.45-7.5-41.41l11.18-3.48,85.87,79.4v82.88c-16.4,22.54-21.39,53.65-14.92,93.25l-26.1-6.89h-111.97l-7.5,6.89h-194.1l-119.4-34.52-82.12-6.89-26.1-24.15-52.27-82.88v-34.52l7.5-27.63-82.12-117.4v-31.1c-14.92,4.62-19.92,0-14.92-13.78l26.1-6.89.07-.07Z"/>
    <path class="cls-2" d="M971.63,864.7l70.88,20.74,22.42,51.77-41.03-31.1c-27.35-9.7-44.77-23.48-52.27-41.41h0Z"/>
    <path class="cls-2" d="M270.01,878.55l74.62,13.78,26.1,24.15c30.88,31.31,53.23,70.44,67.2,117.4l-18.67-10.37-44.77-27.63-3.75,10.37,74.62,103.55,22.42,58.66-37.35,3.48,63.45,58.66,7.5-6.89c23.89-10.1,56.24-12.44,97.05-6.89l74.62,13.78,67.2,27.63h201.52l7.5-6.89h97.05l22.42,6.89c39.78,11.51,70.88,31.1,93.3,58.66l-41.03,31.1h-37.35c-7.5-11.51-24.85-13.78-52.27-6.89l-261.22,103.55h-119.4l-14.92,6.89,14.92-20.74,63.45-44.88-33.6-3.48-7.5,6.89-186.6,20.74-11.18,10.37,14.92,55.25-33.6,44.88-63.45,17.26,18.67,10.37h164.25l156.75-34.52,119.4-41.41,134.32-62.14-7.5,13.78-134.32,69.03-179.17,69.03-82.12,20.74h-59.7l-171.67-27.63-153-82.88c5.44-12.44,1.76-17.06-11.18-13.78l-44.77-48.36,171.67,96.66-18.67-24.15-41.03-44.88h-44.77l-115.72-86.29-37.35-62.14-7.5-155.39c13.45-5.08,18.38-1.61,14.92,10.37l14.92,6.89c-5-86.56,7.5-154.45,37.35-203.69l153-69.03v.13Z"/>
    <path class="cls-2" d="M1079.85,906.18l97.05,24.15-14.92,6.89,52.27,41.41v82.88l11.18,10.37,85.87,55.25,7.5,65.62-33.6,72.51-111.97,55.25-48.52-86.29,37.35-131.17-82.12-196.8-.07-.07Z"/>
    <path class="cls-2" d="M1314.98,1044.24c21.39,51.57,52.49,94.12,93.3,127.76l-11.18,3.48-63.45-65.62-18.67-65.62h0Z"/>
    <path class="cls-2" d="M1352.32,1272.14h22.42l63.45,37.99-149.25,13.78,167.92,44.88,33.6,24.15-22.42,107.03h-48.52l-134.32,55.25-104.47,13.78-7.5-6.89h-74.62l-7.5-6.89-171.67-6.89-26.1-10.37,63.45-79.4c108.96-83.35,240.86-145.49,395.62-186.43h-.07ZM1169.48,1479.31l-82.12,20.74,104.47,13.78h52.27l7.5,6.89,59.7-6.89,7.5-20.74,22.42-6.89-171.67-6.89h-.07Z"/>
    <path class="cls-1" d="M620.86,22.27l67.2,6.89h14.92l37.35,13.78h44.77l41.03,24.15-18.67,3.48-22.42-6.89-7.5,6.89-78.37,3.48,63.45,24.15,14.92-20.74h37.35l93.3,51.77,44.77,124.29,7.5,82.88,22.42,34.52v20.74l-44.77,34.52,7.5,62.14-74.62,110.51v20.74l14.92,62.14,7.5,117.4,11.18,10.37,134.32,55.25,126.9,20.74,138.07,93.25,7.5,27.63,82.12,117.4v13.78l111.97,117.4,44.77,110.51,7.5,69.03h-7.5l-14.92-41.41,7.5-17.26c-18.38,5.95-23.38-4.35-14.92-31.1l-29.85-69.03-41.03-44.88-3.75,86.29,67.2,82.88,7.5,41.41v13.78l-7.5,20.74,18.67,51.77,18.67-10.37-18.67,37.99-179.17,82.88-141.82,6.89-33.6-6.89-29.85,145.02c-13.45,5.08-18.38,1.61-14.92-10.37-13.97-13.78-18.9-33.38-14.92-58.66l-134.32-44.88,119.4-34.52-33.6-10.37-253.8-27.63-7.5-6.89h-67.2l-126.9,27.63-111.97,6.89c-74.62-29.9-156.75-52.91-246.3-69.03l-11.18-10.37-18.67-24.15-41.03-6.89,22.42,65.62v75.99l74.62,120.87-67.2,27.63-59.7-286.56c-29.85-78.26-69.7-147.3-119.4-207.16l-14.92-75.99v-13.78l-7.5-151.91c17.94-57.06,46.54-104.28,85.87-141.54l119.4-69.03,111.97-6.89,153-65.62v-41.41l-29.85-34.52c-1.47-33.11-11.47-58.46-29.85-75.99v-41.41l-14.92-48.36v-141.54c-42.79-9.7-77.64-29.23-104.47-58.66l7.5-31.1,123.15-27.63,171.67-6.89,7.5,6.89h74.62l82.12,13.78,171.67,55.25-3.75-10.37v-62.14l-52.27-148.43-55.95-20.74,37.35,41.41,18.67,10.37,44.77,131.17-11.18,3.48-22.42-13.78-3.75,10.37,7.5,27.63-11.18-3.48c-49.77-23.01-109.47-36.86-179.17-41.41l-11.18-10.37-7.5-37.99c11.47,11.97,32.57,16.59,63.45,13.78l-7.5-13.78c-24.41-20.74-55.51-32.24-93.3-34.52l-22.42-93.25,59.7-48.36-33.6-3.48-29.85,6.89,7.5-20.74h-22.42l-44.77,20.74h-37.35l-48.52,31.1-22.42,34.52v48.36l-26.1,65.62-7.5-27.63-26.1,69.03c-13.45,5.08-18.38,1.61-14.92-10.37,21.39-86.09,59.99-156.26,115.72-210.58l111.97-34.52-.15-.2ZM430.51,326.09l-37.35,27.63,7.5,6.89c9.93-18.4,27.35-27.63,52.27-27.63l-22.42-6.89ZM542.48,333.05l-59.7,13.78c-19.92-4.62-27.35,0-22.42,13.78l52.27,6.89,14.92,27.63-7.5,34.52-22.42-13.78h-37.35c0,13.78-7.5,18.4-22.42,13.78l-7.5,34.52v82.88l22.42,96.66,14.92-6.89,7.5,13.78v55.25l29.85,20.74c19.92-4.62,34.85-2.27,44.77,6.89l59.7-6.89,52.27-69.03,7.5,20.74,22.42-27.63,7.5-55.25,14.92-6.89-7.5,20.74,7.5,34.52,14.92-20.74c-5-32.24,0-52.91,14.92-62.14v-48.36l59.7-34.52v-20.74l-29.85,13.78h-22.42l67.2-55.25c9.93-32.24,2.5-52.91-22.42-62.14h-14.92v27.63h-14.92l-14.92-20.74-14.92-20.74-37.35-6.89h-156.75l.07.13ZM826.13,333.05v6.89l52.27,13.78,52.27,48.36c-5,9.23,0,11.51,14.92,6.89l-7.5-20.74c-24.85-32.24-62.2-50.64-111.97-55.25v.07ZM430.51,374.45l7.5,34.52,22.42-13.78,37.35,6.89h14.92l-52.27-27.63h-29.92ZM908.18,429.71l-14.92,13.78-29.85-6.89-14.92,55.25c9.93,32.24,5,46.02-14.92,41.41l-14.92-27.63-37.35,41.41c0,59.87-9.93,108.16-29.85,145.02h22.42l29.85-27.63c-5-13.78,0-18.4,14.92-13.78l-7.5,227.9-14.92-13.78-14.92-103.55-29.85,103.55-14.92,27.63-82.12-55.25-104.47-48.36-7.5-13.78,74.62,20.74h7.5l-82.12-41.41h-29.85v48.36l-37.35,6.89-37.35,27.63,52.27,13.78,7.5,20.74,201.52,138.13h89.55l82.12-13.78,7.5-20.74c0-36.86-12.43-59.87-37.35-69.03l7.5-82.88,14.92,34.52,14.92,6.89-14.92-69.03-14.92-214.05-22.42,6.89,14.92-34.52,37.35,13.78,14.92-27.63,7.5-13.78c-14.92-4.62-19.92,0-14.92,13.78l-22.42,6.89,14.92-27.63-7.5-41.41,22.42-13.78,14.92-6.89-14.92,20.74,14.92,48.36c14.92-18.4,19.92-46.02,14.92-82.88l-14.92-13.78v-.2ZM393.16,857.81l-29.85,6.89c-5,13.78,0,18.4,14.92,13.78v34.52l82.12,117.4-7.5,27.63v34.52l52.27,82.88,29.85,20.74,82.12,6.89,119.4,34.52h194.1l7.5-6.89h111.97l22.42,6.89c-5-41.41,0-71.37,14.92-89.77v-82.88l-82.12-82.88-14.92,6.89c9.93,4.62,12.43,18.4,7.5,41.41l37.35,62.14v6.89l-111.97-69.03,7.5-27.63v-69.03l-7.5-48.36-22.42,131.17h-216.45l-253.8-151.91-37.35-6.89-.07.13ZM975.38,864.7c5,18.4,22.42,32.24,52.27,41.41l37.35,34.52-22.42-55.25-67.2-20.74v.07ZM273.76,878.55l-156.75,69.03c-29.85,50.64-42.27,119.67-37.35,207.16l-14.92-6.89c5-13.78,0-18.4-14.92-13.78l7.5,158.8,37.35,62.14,119.4,82.88h44.77l37.35,48.36,29.85,27.63-171.67-96.66,37.35,41.41c9.93-4.62,12.43,0,7.5,13.78l156.75,82.88,171.67,27.63h59.7l82.12-20.74,261.22-110.51,7.5-13.78-246.3,89.77-111.97,20.74h-164.25l-22.42-6.89,67.2-20.74,29.85-41.41-14.92-55.25,14.92-13.78,186.6-20.74,7.5-6.89,29.85,6.89-59.7,41.41-14.92,20.74,14.92-6.89h119.4l261.22-103.55c24.85-4.62,42.27-2.27,52.27,6.89h37.35l37.35-27.63c-19.92-27.63-49.77-48.36-89.55-62.14l-22.42-6.89h-97.05l-7.5,6.89h-201.52l-67.2-27.63-74.62-13.78c-44.77-4.62-77.12-2.27-97.05,6.89l-7.5,6.89-67.2-55.25,37.35-6.89-22.42-55.25-74.62-103.55,7.5-13.78,44.77,27.63,14.92,13.78c-14.92-50.64-37.35-89.77-67.2-117.4l-22.42-27.63-74.62-13.78v-.13ZM1079.85,906.18l82.12,200.27-37.35,131.17,52.27,82.88,111.97-55.25,29.85-69.03-7.5-69.03-82.12-55.25-14.92-6.89v-82.88l-52.27-41.41,14.92-6.89-97.05-27.63.07-.07ZM1326.22,1058.09c-9.93,23.01-7.5,41.41,7.5,55.25l44.77,34.52-52.27-89.77ZM1356.07,1272.14c-159.25,41.41-291.07,103.55-395.62,186.43l-67.2,82.88,29.85,6.89,171.67,6.89,7.5,6.89h74.62l7.5,6.89,104.47-13.78,134.32-55.25h44.77l22.42-103.55-29.85-27.63-171.67-41.41,149.25-13.78-59.7-41.41h-22.42l.07-.07Z"/>
    <path class="cls-1" d="M673.06,346.83l26.1,6.89c5.44,12.44,1.76,17.06-11.18,13.78l-74.62,13.78-29.85,27.63-18.67-31.1,108.22-31.1v.13Z"/>
    <path class="cls-1" d="M635.78,388.23l55.95,13.78-11.18,20.74-3.75-13.78-48.52,6.89-18.67-10.37,26.1-17.26h.07Z"/>
    <path class="cls-1" d="M591.01,471.11l78.37,65.62-3.75,17.26-14.92-20.74c-10.95,3.68-14.7.2-11.18-10.37-3.46-14.72-17.2-20.47-41.03-17.26l-67.2,34.52-48.52-27.63-26.1,55.25-3.75-24.15,29.85-44.88,41.03,20.74c2.5-16.12,14.92-23.01,37.35-20.74l14.92,6.89,18.67-10.37-3.75-24.15h0Z"/>
    <path class="cls-1" d="M501.38,560.88h141.82l3.75,10.37-29.85,20.74,7.5-13.78-26.1-10.37h-100.8l-3.75,27.63-11.18-27.63,18.67-6.89-.07-.07Z"/>
    <path class="cls-1" d="M508.88,623.02h59.7l3.75,10.37c-8.45,18.4-28.38,24.15-59.7,17.26l-3.75-27.63Z"/>
    <path class="cls-1" d="M1165.73,1479.31l175.42,3.48-22.42,10.37-11.18,20.74-59.7,6.89-7.5-6.89h-52.27l-100.8-17.26,78.37-17.26.07-.07Z"/>
  </g>
</svg>