<?xml version="1.0" encoding="UTF-8"?>
<svg id="Capa_1" data-name="Capa 1" xmlns="http://www.w3.org/2000/svg" xmlns:xlink="http://www.w3.org/1999/xlink" viewBox="0 0 15.95 15.95">
  <defs>
    <style>
      .cls-1 {
        fill: #1f1f1e;
      }

      .cls-1, .cls-2, .cls-3 {
        stroke-width: 0px;
      }

      .cls-2 {
        fill: url(#Degradado_sin_nombre_405);
      }

      .cls-3 {
        fill: #bba164;
      }
    </style>
    <linearGradient id="Degradado_sin_nombre_405" data-name="Degradado sin nombre 405" x1="1.35" y1="10.76" x2="14.99" y2="10.76" gradientUnits="userSpaceOnUse">
      <stop offset="0" stop-color="#564e25"/>
      <stop offset="0" stop-color="#584e26"/>
      <stop offset=".02" stop-color="#5f4e29"/>
      <stop offset=".07" stop-color="#614f2b"/>
      <stop offset=".1" stop-color="#736037"/>
      <stop offset=".16" stop-color="#8f7a49"/>
      <stop offset=".17" stop-color="#836f41"/>
      <stop offset=".17" stop-color="#7c683d"/>
      <stop offset=".18" stop-color="#7b673c"/>
      <stop offset=".31" stop-color="#8a7445"/>
      <stop offset=".65" stop-color="#ad945b"/>
      <stop offset=".84" stop-color="#bba164"/>
      <stop offset=".84" stop-color="#b89e62"/>
      <stop offset="1" stop-color="#8c7b47"/>
    </linearGradient>
  </defs>
  <rect class="cls-1" width="15.95" height="15.95"/>
  <g>
    <path class="cls-1" d="M7.67,2.91l-.37.12c-.2.19-.33.43-.4.72-.02.03,0,.04.05.02l.1-.28h.02l-.02.07.02.07.07-.21v-.16l.07-.12.17-.12h.12l.15-.07h.07l-.02.07.1-.02.1.02-.2.16.07.3c.13.02.24.05.32.12l.02.05c-.12.02-.19,0-.22-.05l.02.14.05.02c.23.02.43.06.6.14l.02.02-.02-.09.02-.05.07.05h.02l-.15-.44-.22-.19v-.02l.22.09.17.51v.21l.02.02-.57-.19-.27-.05h-.25l-.02-.02-.57.02-.42.09-.02.12c.08.09.2.16.35.19v.49l.05.16v.14c.07.05.1.13.1.26l.1.12v.14l-.5.21-.37.02-.4.23-.22.3.02.05h-.05l.02.07-.02-.02-.05.09.02.51v.05l.05.26c.17.2.3.44.4.7l.2.96.22-.09-.25-.4v-.26l-.07-.23.15.02.05.09.05.02c.3.05.57.12.82.23l.37-.02.42-.09h.22l.02.02.84.09.1.05-.4.12.45.14c-.02.09,0,.16.05.21-.02.03,0,.04.05.02l.1-.49.12.02.47-.02.6-.28.05-.12-.05.02-.07-.16.02-.07v-.05l-.02-.14-.22-.28.02-.3.12.16.1.23c-.03.08-.02.11.05.09l-.02.07.05.14h.02l-.02-.23-.15-.37-.37-.4v-.05l-.27-.4-.02-.09-.45-.33-.42-.07-.45-.19-.05-.02-.02-.4-.05-.21v-.07l.25-.37-.02-.21.15-.12v-.07l-.07-.12-.02-.28-.15-.42-.3-.19h-.12l-.05.07-.22-.07.27-.02.02-.02.07.02h.05l-.12-.09h-.15l-.12-.05h-.05l-.22-.02Z"/>
    <path class="cls-1" d="M7.02,3.94h.09c-.09.02-.15.06-.19.12v-.04s.1-.08.1-.08Z"/>
    <path class="cls-1" d="M8.26,3.94c.2.02.36.08.46.2l.02.08s-.06,0-.05-.04l-.19-.15-.25-.07v-.02Z"/>
    <path class="cls-1" d="M7.39,3.96h.52l.12.02.06.06.04.08h.06v-.09h.04c.08.03.11.1.09.21l-.22.18h.06s.1-.04.1-.04v.06s-.19.12-.19.12v.16c-.05.04-.07.11-.05.21l-.06.08v-.13s.01-.07.01-.07l-.05.02-.02.19-.09.11-.02-.07-.17.23-.2.02s-.07-.04-.15-.02l-.09-.08v-.19l-.04-.04h-.04s-.07-.32-.07-.32v-.28l.02-.11c.05.01.07,0,.06-.05h.12l.07.05.04-.13-.05-.08-.17-.02s0-.06.06-.05l.2-.05ZM7.85,4.01l-.37.12.07.09.1-.09.25-.05s.04,0,.02-.05l-.07-.02ZM7.72,4.15l-.1.07.07.02.15-.02.02.05.02-.07-.17-.05ZM7.58,4.43v.09l-.05.02-.05-.02c-.08,0-.12.02-.12.07l-.1-.07s-.07,0-.05.05l.17.09.22-.12c.07-.02.11,0,.12.07-.02.03,0,.04.05.02l.05.07v-.05l-.25-.23ZM7.2,4.57l-.1.12.02.07.07-.14v-.05ZM7.28,4.73v.02c.17-.03.3-.02.4.05l-.02.05.1-.07v-.05h-.47ZM7.3,4.94v.09c.1.03.17.02.2-.05v-.05h-.2Z"/>
    <path class="cls-1" d="M7.03,4.1h.09l.19.08h-.06s-.12-.01-.12-.01l-.06.04-.02-.11Z"/>
    <path class="cls-1" d="M8.6,4.29l.06.04v.19l-.16.25-.12-.05-.04.12.06-.02.06.71.05.23-.05-.02-.06-.11v.27c.06.05.1.12.11.23l-.02.08-.29.05h-.3l-.66-.48-.04-.06-.16-.06.11-.08.14-.02v-.16h.09c.15.03.27.09.36.18h-.04s-.32-.11-.32-.11l.02.05.35.16.27.19.06-.11.09-.34.06.34.04.06.04-.77s-.06,0-.05.04l-.19.13v-.04s.09-.19.09-.19l.02-.3.11-.13.06.09c.06.02.07-.03.05-.15l.05-.18.09.02.05-.05ZM8.59,4.38l-.1.07.02.07-.05.16.07-.02s0-.06.05-.05l-.02-.07.02-.12v-.05Z"/>
    <path class="cls-1" d="M6.89,5.74l.12.02.84.51h.73l.06-.44.04.15v.23l-.02.09.36.25v-.04s-.11-.21-.11-.21c.02-.07.01-.12-.02-.14h.04s.29.26.29.26v.28c-.05.08-.07.18-.05.32l-.09-.02h-.37l-.02.02h-.64l-.4-.12-.27-.02-.09-.08-.17-.28v-.12l.02-.09-.27-.4v-.11s-.07,0-.05-.05l.09-.02Z"/>
    <path class="cls-1" d="M8.83,5.76l.24.07.07.18-.14-.11c-.09-.03-.15-.08-.17-.14Z"/>
    <path class="cls-1" d="M6.5,5.81l.25.05.09.08c.1.11.18.24.22.4l-.06-.04-.15-.09v.04s.24.35.24.35l.07.2h-.12s.21.21.21.21l.02-.02c.08-.03.19-.04.32-.02l.25.05.22.09h.67l.02-.02h.32l.07.02c.13.04.24.11.31.2l-.14.11h-.12s-.08-.05-.17-.02l-.87.35h-.4l-.05.02.05-.07.21-.15h-.11s-.02.01-.02.01l-.62.07-.04.04.05.19-.11.15-.21.06.06.04h.55l.52-.12.4-.14.45-.21-.02.05-.45.23-.6.23-.27.07h-.2l-.57-.09-.51-.28s0-.06-.04-.05l-.15-.16.57.33-.06-.08-.14-.15h-.15l-.38-.29-.12-.21-.02-.53s.06,0,.05.04l.05.02c-.02-.29.02-.52.12-.69l.51-.23Z"/>
    <path class="cls-1" d="M9.19,5.9l.32.08-.05.02.17.14v.28l.04.04.29.19.02.22-.11.25-.37.19-.16-.29.12-.44-.27-.67Z"/>
    <path class="cls-1" d="M9.97,6.37c.07.17.17.32.31.43h-.04s-.21-.21-.21-.21l-.06-.22Z"/>
    <path class="cls-1" d="M10.09,7.14h.07l.21.13-.5.05.56.15.11.08-.07.36h-.16l-.45.19-.35.05-.02-.02h-.25l-.02-.02-.57-.02-.09-.04.21-.27c.36-.28.8-.49,1.31-.63ZM9.49,7.84l-.27.07.35.05h.17l.02.02.2-.02.02-.07.07-.02-.57-.02Z"/>
    <path class="cls-3" d="M7.66,2.91l.22.02h.05l.12.05h.15l.14.08h-.06s-.07-.01-.07-.01l-.02.02h-.26s.21.09.21.09l.05-.07h.12l.31.18.15.42.02.28.07.12v.07l-.15.12.02.21-.25.37v.07l.05.21.02.4.04.04.45.19.42.07.46.32.02.09.27.4v.05l.37.4.15.37.02.23h-.02l-.05-.14.02-.06c-.06.02-.08-.01-.05-.11l-.1-.23-.14-.15v.29s.21.28.21.28l.02.14v.05l-.02.07.06.18.06-.04-.06.13-.6.28-.47.02-.11-.02-.1.49s-.06,0-.05-.04c-.05-.05-.06-.11-.05-.2l-.45-.15.4-.12-.11-.04-.84-.09-.02-.02h-.22l-.42.09-.37.02c-.25-.1-.52-.18-.82-.23l-.04-.04-.06-.08-.14-.02.07.22v.26l.25.41-.22.09-.2-.97c-.1-.26-.23-.5-.4-.7l-.05-.26v-.05l-.02-.51c.06-.19.15-.35.29-.48l.4-.23.37-.02.51-.22v-.14l-.1-.12c0-.11-.04-.2-.1-.26v-.14l-.05-.16v-.48c-.14-.03-.26-.1-.35-.2l.02-.11.41-.09.57-.02.02.02h.25l.27.05.57.19v-.04s-.01-.21-.01-.21l-.17-.5-.19-.07.12.14.06.04.15.44h-.04s-.07-.04-.07-.04v.04s.01.09.01.09h-.04c-.17-.09-.36-.14-.6-.15l-.04-.04-.02-.13s.11.06.21.05l-.02-.05c-.08-.07-.18-.11-.31-.12l-.07-.32.2-.16h-.11s-.1.01-.1.01l.02-.07h-.07l-.15.07h-.12l-.16.11-.07.12v.16l-.09.22-.02-.09-.09.23s-.06,0-.05-.04c.07-.29.2-.53.38-.71l.37-.12ZM7.03,3.94l-.12.09.02.02c.03-.06.09-.09.17-.09l-.07-.02ZM7.4,3.96l-.2.05c-.07-.02-.09,0-.07.05l.17.02.05.09-.02.12-.07-.05h-.12s-.02.06-.07.05l-.02.12v.28l.07.33.05-.02.02.05v.19l.1.07c.07-.02.12,0,.15.02l.2-.02.17-.23.02.07.07-.09.02-.19.05-.02-.02.07.02.12.05-.07c-.02-.11,0-.18.05-.21v-.16l.2-.12v-.07l-.1.05h-.07l.22-.19c.03-.11,0-.18-.07-.21h-.05v.09h-.05l-.05-.07-.05-.07-.12-.02h-.52ZM8.34,3.96v.02l.17.05.17.16s0,.04.05.02l-.02-.07c-.08-.11-.21-.17-.37-.19ZM7.03,4.1l.02.12.07-.05.12.02h.05l-.17-.09h-.1ZM8.62,4.29l-.05.05-.1-.02-.05.19c.03.11.02.16-.05.14l-.05-.09-.12.14c0,.2-.03.37-.1.49h.07l.1-.09s0-.06.05-.05l-.02.77-.05-.05-.05-.35-.1.35-.05.09-.27-.19-.35-.16-.02-.05.25.07h.02l-.27-.14h-.1v.16l-.12.02-.12.09.17.05.02.07.67.47h.3l.27-.05.02-.07c0-.12-.04-.2-.12-.23l.02-.28.05.12.05.02-.05-.23-.05-.72-.07.02.05-.12.12.05.05-.09.02-.05s-.07,0-.05.05l-.07.02.05-.09-.02-.14.07-.05.05-.02-.05.07.05.16c.05-.06.07-.16.05-.28l-.05-.05ZM6.91,5.74l-.1.02s0,.06.05.05v.12l.27.4-.02.09v.12l.17.28.1.07.27.02.4.12h.64l.02-.02h.37l.07.02c-.02-.14,0-.24.05-.3v-.28l-.27-.28-.05.02s.04.06.02.14l.12.21v.02l-.37-.23.02-.09v-.23l-.02-.16-.07.44h-.72l-.84-.51-.12-.02ZM8.84,5.76c.02.06.07.11.17.14l.12.12-.07-.19-.22-.07ZM6.51,5.81l-.52.23c-.1.17-.14.4-.12.7l-.05-.02s0-.06-.05-.05l.02.54.12.21.4.28h.15l.12.16.1.09-.57-.33.12.14s.04,0,.02.05l.52.28.57.09h.2l.27-.07.87-.37.02-.05-.82.3-.37.07h-.55l-.07-.02.22-.07.1-.14-.05-.19.05-.05.62-.07.02-.02.1.02-.2.14-.05.07.05-.02h.4l.87-.35c.08-.02.14,0,.17.02h.12l.12-.09c-.07-.09-.17-.16-.3-.21l-.07-.02h-.32l-.02.02h-.67l-.22-.09-.25-.05c-.15-.02-.26,0-.32.02l-.02.02-.22-.19.12-.02-.07-.19-.25-.35.02-.05.15.09.05.05c-.05-.17-.12-.3-.22-.4l-.07-.09-.25-.05ZM9.19,5.9l.27.68-.12.44.17.28.37-.19.1-.23-.02-.23-.27-.19-.05-.02v-.28l-.17-.14.05-.02-.32-.09ZM10.01,6.41c-.03.08-.02.14.02.19l.15.12-.17-.3ZM10.11,7.14c-.53.14-.97.35-1.31.63l-.22.28.1.02.57.02.02.02h.25l.02.02.35-.05.45-.19h.15l.07-.35-.1-.09-.57-.14.5-.05-.2-.14h-.07Z"/>
    <path class="cls-3" d="M7.84,4.01l.09.02s0,.06-.04.05l-.25.05-.1.09-.06-.11.36-.11Z"/>
    <path class="cls-3" d="M7.71,4.15l.19.05-.04.07v-.05s-.17.02-.17.02l-.06-.04.09-.06Z"/>
    <path class="cls-3" d="M7.56,4.43l.26.22v.06s-.06-.07-.06-.07c-.04.01-.05,0-.04-.04-.01-.05-.06-.07-.14-.06l-.22.12-.16-.09-.09.19v-.08s.09-.15.09-.15l.14.07c0-.05.05-.08.12-.07l.05.02.06-.04v-.08Z"/>
    <path class="cls-3" d="M7.27,4.73h.47v.04s-.09.07-.09.07l.02-.05-.09-.04h-.33v.09s-.05-.09-.05-.09l.06-.02Z"/>
    <path class="cls-3" d="M7.29,4.94h.2v.04c-.02.06-.08.08-.19.06v-.09Z"/>
    <path class="cls-3" d="M9.47,7.84h.58s-.07.05-.07.05l-.04.07-.2.02-.02-.02h-.17l-.33-.06.26-.06Z"/>
  </g>
  <g>
    <path class="cls-1" d="M7.67,2.91l-.37.12c-.2.19-.33.43-.4.72-.02.03,0,.04.05.02l.1-.28h.02l-.02.07.02.07.07-.21v-.16l.07-.12.17-.12h.12l.15-.07h.07l-.02.07.1-.02.1.02-.2.16.07.3c.13.02.24.05.32.12l.02.05c-.12.02-.19,0-.22-.05l.02.14.05.02c.23.02.43.06.6.14l.02.02-.02-.09.02-.05.07.05h.02l-.15-.44-.22-.19v-.02l.22.09.17.51v.21l.02.02-.57-.19-.27-.05h-.25l-.02-.02-.57.02-.42.09-.02.12c.08.09.2.16.35.19v.49l.05.16v.14c.07.05.1.13.1.26l.1.12v.14l-.5.21-.37.02-.4.23-.22.3.02.05h-.05l.02.07-.02-.02-.05.09.02.51v.05l.05.26c.17.2.3.44.4.7l.2.96.22-.09-.25-.4v-.26l-.07-.23.15.02.05.09.05.02c.3.05.57.12.82.23l.37-.02.42-.09h.22l.02.02.84.09.1.05-.4.12.45.14c-.02.09,0,.16.05.21-.02.03,0,.04.05.02l.1-.49.12.02.47-.02.6-.28.05-.12-.05.02-.07-.16.02-.07v-.05l-.02-.14-.22-.28.02-.3.12.16.1.23c-.03.08-.02.11.05.09l-.02.07.05.14h.02l-.02-.23-.15-.37-.37-.4v-.05l-.27-.4-.02-.09-.45-.33-.42-.07-.45-.19-.05-.02-.02-.4-.05-.21v-.07l.25-.37-.02-.21.15-.12v-.07l-.07-.12-.02-.28-.15-.42-.3-.19h-.12l-.05.07-.22-.07.27-.02.02-.02.07.02h.05l-.12-.09h-.15l-.12-.05h-.05l-.22-.02Z"/>
    <path class="cls-1" d="M7.02,3.94h.09c-.09.02-.15.06-.19.12v-.04s.1-.08.1-.08Z"/>
    <path class="cls-1" d="M8.26,3.94c.2.02.36.08.46.2l.02.08s-.06,0-.05-.04l-.19-.15-.25-.07v-.02Z"/>
    <path class="cls-1" d="M7.39,3.96h.52l.12.02.06.06.04.08h.06v-.09h.04c.08.03.11.1.09.21l-.22.18h.06s.1-.04.1-.04v.06s-.19.12-.19.12v.16c-.05.04-.07.11-.05.21l-.06.08v-.13s.01-.07.01-.07l-.05.02-.02.19-.09.11-.02-.07-.17.23-.2.02s-.07-.04-.15-.02l-.09-.08v-.19l-.04-.04h-.04s-.07-.32-.07-.32v-.28l.02-.11c.05.01.07,0,.06-.05h.12l.07.05.04-.13-.05-.08-.17-.02s0-.06.06-.05l.2-.05ZM7.85,4.01l-.37.12.07.09.1-.09.25-.05s.04,0,.02-.05l-.07-.02ZM7.72,4.15l-.1.07.07.02.15-.02.02.05.02-.07-.17-.05ZM7.58,4.43v.09l-.05.02-.05-.02c-.08,0-.12.02-.12.07l-.1-.07s-.07,0-.05.05l.17.09.22-.12c.07-.02.11,0,.12.07-.02.03,0,.04.05.02l.05.07v-.05l-.25-.23ZM7.2,4.57l-.1.12.02.07.07-.14v-.05ZM7.28,4.73v.02c.17-.03.3-.02.4.05l-.02.05.1-.07v-.05h-.47ZM7.3,4.94v.09c.1.03.17.02.2-.05v-.05h-.2Z"/>
    <path class="cls-1" d="M7.03,4.1h.09l.19.08h-.06s-.12-.01-.12-.01l-.06.04-.02-.11Z"/>
    <path class="cls-1" d="M8.6,4.29l.06.04v.19l-.16.25-.12-.05-.04.12.06-.02.06.71.05.23-.05-.02-.06-.11v.27c.06.05.1.12.11.23l-.02.08-.29.05h-.3l-.66-.48-.04-.06-.16-.06.11-.08.14-.02v-.16h.09c.15.03.27.09.36.18h-.04s-.32-.11-.32-.11l.02.05.35.16.27.19.06-.11.09-.34.06.34.04.06.04-.77s-.06,0-.05.04l-.19.13v-.04s.09-.19.09-.19l.02-.3.11-.13.06.09c.06.02.07-.03.05-.15l.05-.18.09.02.05-.05ZM8.59,4.38l-.1.07.02.07-.05.16.07-.02s0-.06.05-.05l-.02-.07.02-.12v-.05Z"/>
    <path class="cls-1" d="M6.89,5.74l.12.02.84.51h.73l.06-.44.04.15v.23l-.02.09.36.25v-.04s-.11-.21-.11-.21c.02-.07.01-.12-.02-.14h.04s.29.26.29.26v.28c-.05.08-.07.18-.05.32l-.09-.02h-.37l-.02.02h-.64l-.4-.12-.27-.02-.09-.08-.17-.28v-.12l.02-.09-.27-.4v-.11s-.07,0-.05-.05l.09-.02Z"/>
    <path class="cls-1" d="M8.83,5.76l.24.07.07.18-.14-.11c-.09-.03-.15-.08-.17-.14Z"/>
    <path class="cls-1" d="M6.5,5.81l.25.05.09.08c.1.11.18.24.22.4l-.06-.04-.15-.09v.04s.24.35.24.35l.07.2h-.12s.21.21.21.21l.02-.02c.08-.03.19-.04.32-.02l.25.05.22.09h.67l.02-.02h.32l.07.02c.13.04.24.11.31.2l-.14.11h-.12s-.08-.05-.17-.02l-.87.35h-.4l-.05.02.05-.07.21-.15h-.11s-.02.01-.02.01l-.62.07-.04.04.05.19-.11.15-.21.06.06.04h.55l.52-.12.4-.14.45-.21-.02.05-.45.23-.6.23-.27.07h-.2l-.57-.09-.51-.28s0-.06-.04-.05l-.15-.16.57.33-.06-.08-.14-.15h-.15l-.38-.29-.12-.21-.02-.53s.06,0,.05.04l.05.02c-.02-.29.02-.52.12-.69l.51-.23Z"/>
    <path class="cls-1" d="M9.19,5.9l.32.08-.05.02.17.14v.28l.04.04.29.19.02.22-.11.25-.37.19-.16-.29.12-.44-.27-.67Z"/>
    <path class="cls-1" d="M9.97,6.37c.07.17.17.32.31.43h-.04s-.21-.21-.21-.21l-.06-.22Z"/>
    <path class="cls-1" d="M10.09,7.14h.07l.21.13-.5.05.56.15.11.08-.07.36h-.16l-.45.19-.35.05-.02-.02h-.25l-.02-.02-.57-.02-.09-.04.21-.27c.36-.28.8-.49,1.31-.63ZM9.49,7.84l-.27.07.35.05h.17l.02.02.2-.02.02-.07.07-.02-.57-.02Z"/>
    <path class="cls-3" d="M7.66,2.91l.22.02h.05l.12.05h.15l.14.08h-.06s-.07-.01-.07-.01l-.02.02h-.26s.21.09.21.09l.05-.07h.12l.31.18.15.42.02.28.07.12v.07l-.15.12.02.21-.25.37v.07l.05.21.02.4.04.04.45.19.42.07.46.32.02.09.27.4v.05l.37.4.15.37.02.23h-.02l-.05-.14.02-.06c-.06.02-.08-.01-.05-.11l-.1-.23-.14-.15v.29s.21.28.21.28l.02.14v.05l-.02.07.06.18.06-.04-.06.13-.6.28-.47.02-.11-.02-.1.49s-.06,0-.05-.04c-.05-.05-.06-.11-.05-.2l-.45-.15.4-.12-.11-.04-.84-.09-.02-.02h-.22l-.42.09-.37.02c-.25-.1-.52-.18-.82-.23l-.04-.04-.06-.08-.14-.02.07.22v.26l.25.41-.22.09-.2-.97c-.1-.26-.23-.5-.4-.7l-.05-.26v-.05l-.02-.51c.06-.19.15-.35.29-.48l.4-.23.37-.02.51-.22v-.14l-.1-.12c0-.11-.04-.2-.1-.26v-.14l-.05-.16v-.48c-.14-.03-.26-.1-.35-.2l.02-.11.41-.09.57-.02.02.02h.25l.27.05.57.19v-.04s-.01-.21-.01-.21l-.17-.5-.19-.07.12.14.06.04.15.44h-.04s-.07-.04-.07-.04v.04s.01.09.01.09h-.04c-.17-.09-.36-.14-.6-.15l-.04-.04-.02-.13s.11.06.21.05l-.02-.05c-.08-.07-.18-.11-.31-.12l-.07-.32.2-.16h-.11s-.1.01-.1.01l.02-.07h-.07l-.15.07h-.12l-.16.11-.07.12v.16l-.09.22-.02-.09-.09.23s-.06,0-.05-.04c.07-.29.2-.53.38-.71l.37-.12ZM7.03,3.94l-.12.09.02.02c.03-.06.09-.09.17-.09l-.07-.02ZM7.4,3.96l-.2.05c-.07-.02-.09,0-.07.05l.17.02.05.09-.02.12-.07-.05h-.12s-.02.06-.07.05l-.02.12v.28l.07.33.05-.02.02.05v.19l.1.07c.07-.02.12,0,.15.02l.2-.02.17-.23.02.07.07-.09.02-.19.05-.02-.02.07.02.12.05-.07c-.02-.11,0-.18.05-.21v-.16l.2-.12v-.07l-.1.05h-.07l.22-.19c.03-.11,0-.18-.07-.21h-.05v.09h-.05l-.05-.07-.05-.07-.12-.02h-.52ZM8.34,3.96v.02l.17.05.17.16s0,.04.05.02l-.02-.07c-.08-.11-.21-.17-.37-.19ZM7.03,4.1l.02.12.07-.05.12.02h.05l-.17-.09h-.1ZM8.62,4.29l-.05.05-.1-.02-.05.19c.03.11.02.16-.05.14l-.05-.09-.12.14c0,.2-.03.37-.1.49h.07l.1-.09s0-.06.05-.05l-.02.77-.05-.05-.05-.35-.1.35-.05.09-.27-.19-.35-.16-.02-.05.25.07h.02l-.27-.14h-.1v.16l-.12.02-.12.09.17.05.02.07.67.47h.3l.27-.05.02-.07c0-.12-.04-.2-.12-.23l.02-.28.05.12.05.02-.05-.23-.05-.72-.07.02.05-.12.12.05.05-.09.02-.05s-.07,0-.05.05l-.07.02.05-.09-.02-.14.07-.05.05-.02-.05.07.05.16c.05-.06.07-.16.05-.28l-.05-.05ZM6.91,5.74l-.1.02s0,.06.05.05v.12l.27.4-.02.09v.12l.17.28.1.07.27.02.4.12h.64l.02-.02h.37l.07.02c-.02-.14,0-.24.05-.3v-.28l-.27-.28-.05.02s.04.06.02.14l.12.21v.02l-.37-.23.02-.09v-.23l-.02-.16-.07.44h-.72l-.84-.51-.12-.02ZM8.84,5.76c.02.06.07.11.17.14l.12.12-.07-.19-.22-.07ZM6.51,5.81l-.52.23c-.1.17-.14.4-.12.7l-.05-.02s0-.06-.05-.05l.02.54.12.21.4.28h.15l.12.16.1.09-.57-.33.12.14s.04,0,.02.05l.52.28.57.09h.2l.27-.07.87-.37.02-.05-.82.3-.37.07h-.55l-.07-.02.22-.07.1-.14-.05-.19.05-.05.62-.07.02-.02.1.02-.2.14-.05.07.05-.02h.4l.87-.35c.08-.02.14,0,.17.02h.12l.12-.09c-.07-.09-.17-.16-.3-.21l-.07-.02h-.32l-.02.02h-.67l-.22-.09-.25-.05c-.15-.02-.26,0-.32.02l-.02.02-.22-.19.12-.02-.07-.19-.25-.35.02-.05.15.09.05.05c-.05-.17-.12-.3-.22-.4l-.07-.09-.25-.05ZM9.19,5.9l.27.68-.12.44.17.28.37-.19.1-.23-.02-.23-.27-.19-.05-.02v-.28l-.17-.14.05-.02-.32-.09ZM10.01,6.41c-.03.08-.02.14.02.19l.15.12-.17-.3ZM10.11,7.14c-.53.14-.97.35-1.31.63l-.22.28.1.02.57.02.02.02h.25l.02.02.35-.05.45-.19h.15l.07-.35-.1-.09-.57-.14.5-.05-.2-.14h-.07Z"/>
    <path class="cls-3" d="M7.84,4.01l.09.02s0,.06-.04.05l-.25.05-.1.09-.06-.11.36-.11Z"/>
    <path class="cls-3" d="M7.71,4.15l.19.05-.04.07v-.05s-.17.02-.17.02l-.06-.04.09-.06Z"/>
    <path class="cls-3" d="M7.56,4.43l.26.22v.06s-.06-.07-.06-.07c-.04.01-.05,0-.04-.04-.01-.05-.06-.07-.14-.06l-.22.12-.16-.09-.09.19v-.08s.09-.15.09-.15l.14.07c0-.05.05-.08.12-.07l.05.02.06-.04v-.08Z"/>
    <path class="cls-3" d="M7.27,4.73h.47v.04s-.09.07-.09.07l.02-.05-.09-.04h-.33v.09s-.05-.09-.05-.09l.06-.02Z"/>
    <path class="cls-3" d="M7.29,4.94h.2v.04c-.02.06-.08.08-.19.06v-.09Z"/>
    <path class="cls-3" d="M9.47,7.84h.58s-.07.05-.07.05l-.04.07-.2.02-.02-.02h-.17l-.33-.06.26-.06Z"/>
  </g>
  <g>
    <path class="cls-2" d="M1.35,12.08v-.3l.3-.05v-1.95l-.3-.05v-.3h2.17v.7h-.41l-.03-.32h-.9v.71h.97v.38h-.97v.8h.95l.03-.33h.4v.71H1.35Z"/>
    <path class="cls-2" d="M3.88,12.08v-.3l.31-.06v-1.94l-.31-.06v-.3h1.21c.25,0,.47.06.66.17.19.11.34.27.45.46.11.2.16.42.16.67v.05c0,.25-.05.47-.16.67s-.25.35-.44.46c-.19.11-.41.17-.66.17h-1.22ZM4.71,11.7h.36c.16,0,.3-.04.41-.12.11-.08.2-.19.26-.33.06-.14.09-.3.09-.47v-.05c0-.18-.03-.34-.09-.47-.06-.14-.15-.25-.26-.33s-.25-.12-.41-.12h-.36v1.89Z"/>
    <path class="cls-2" d="M6.61,12.08v-.3l.3-.05v-1.95l-.3-.05v-.3h1.32c.21,0,.4.03.55.09.15.06.27.15.35.27.08.12.12.26.12.42s-.04.29-.12.41-.19.21-.34.28c-.14.07-.31.1-.5.1h-.55v.73l.3.05v.3h-1.14ZM7.44,10.62h.47c.17,0,.3-.03.39-.1s.13-.17.13-.29-.04-.23-.12-.3c-.08-.08-.21-.11-.37-.11h-.49v.81ZM8.44,12.08l-.51-1.19.48-.09.43.93.23.05v.3h-.64Z"/>
    <path class="cls-2" d="M10.31,12.08v-.3l.3-.05v-1.95l-.3-.05v-.3h2.17v.7h-.41l-.03-.32h-.9v.71h.97v.38h-.97v.8h.95l.03-.33h.4v.71h-2.21Z"/>
    <path class="cls-2" d="M13.96,12.12c-.2,0-.38-.02-.55-.07-.17-.04-.33-.12-.49-.23v-.63h.41l.06.39c.06.05.15.08.25.11.1.03.21.04.33.04.11,0,.2-.01.27-.04.07-.03.13-.07.17-.12.04-.05.06-.12.06-.19s-.02-.13-.05-.18-.09-.1-.17-.14c-.08-.04-.19-.08-.32-.12-.22-.06-.4-.12-.54-.2-.15-.07-.25-.16-.33-.26-.07-.1-.11-.23-.11-.37s.04-.27.12-.38.2-.2.35-.26c.15-.06.32-.1.51-.1.21,0,.4.02.57.08.16.05.3.12.42.21v.58h-.4l-.07-.37c-.05-.03-.12-.06-.2-.08-.08-.02-.18-.04-.29-.04-.09,0-.18.01-.25.04s-.13.07-.17.12c-.04.05-.06.12-.06.19,0,.06.02.12.05.17.04.05.1.09.18.13s.2.08.35.12c.31.08.54.19.7.32.16.13.24.31.24.52,0,.15-.04.28-.13.39-.09.11-.21.2-.36.26-.15.06-.33.09-.54.09Z"/>
  </g>
</svg>